<?xml version="1.0" standalone="no"?>
<!DOCTYPE svg PUBLIC "-//W3C//DTD SVG 20010904//EN"
 "http://www.w3.org/TR/2001/REC-SVG-20010904/DTD/svg10.dtd">
<svg version="1.0" xmlns="http://www.w3.org/2000/svg"
 width="654.000000pt" height="654.000000pt" viewBox="0 0 654.000000 654.000000"
 preserveAspectRatio="xMidYMid meet">
<metadata>
Created by potrace 1.11, written by Peter Selinger 2001-2013
</metadata>
<g transform="translate(0.000000,654.000000) scale(0.100000,-0.100000)"
fill="#000000" stroke="none">
<path d="M850 6234 c-8 -2 -40 -12 -70 -22 -98 -29 -198 -100 -266 -188 -177
-228 -131 -574 99 -747 67 -51 157 -93 227 -105 52 -10 187 -9 220 0 8 3 29 8
45 13 17 4 47 17 68 27 36 18 42 18 70 4 18 -8 196 -85 397 -171 201 -86 379
-162 395 -170 17 -7 64 -27 105 -45 41 -18 89 -38 105 -46 17 -7 109 -46 205
-87 96 -41 191 -82 210 -90 19 -9 55 -24 80 -35 25 -11 106 -45 180 -77 74
-31 149 -63 165 -71 17 -7 167 -72 335 -145 642 -276 587 -257 669 -233 80 24
90 39 226 354 36 85 70 164 75 175 5 11 21 47 35 80 15 33 43 98 62 145 19 47
46 109 60 139 81 179 123 294 123 335 0 80 -43 145 -120 179 -19 9 -71 32
-115 52 -170 78 -269 51 -335 -90 -16 -33 -70 -157 -120 -275 -50 -118 -105
-243 -121 -278 -16 -34 -29 -65 -29 -70 -1 -33 -20 -31 -121 13 -109 48 -134
59 -171 74 -13 6 -49 21 -81 35 -31 14 -85 37 -120 52 -34 14 -75 31 -92 39
-97 43 -159 71 -230 100 -44 18 -116 49 -160 68 -44 19 -213 92 -375 162 -162
70 -315 136 -340 147 -25 11 -58 26 -75 33 -52 22 -178 76 -230 99 -27 12
-118 51 -201 87 l-151 64 -11 51 c-11 54 -54 156 -75 180 -7 7 -25 31 -42 52
-44 57 -145 129 -222 158 -51 19 -92 27 -168 30 -55 2 -107 1 -115 -2z m165
-248 c11 -3 21 -5 23 -6 1 -2 5 -3 10 -4 22 -5 82 -40 82 -48 0 -5 3 -7 8 -5
12 8 71 -85 86 -135 70 -235 -153 -445 -384 -362 -138 49 -220 215 -177 356
18 56 67 137 85 138 6 0 12 4 12 8 0 14 75 51 116 58 21 3 41 8 43 10 4 3 55
-2 96 -10z"/>
<path d="M5608 6165 c-2 -2 -21 -5 -43 -8 -83 -12 -195 -64 -263 -122 -72 -63
-152 -177 -144 -207 1 -5 -2 -8 -7 -8 -5 0 -12 -15 -16 -32 -4 -18 -10 -40
-12 -48 -11 -37 -9 -171 3 -229 7 -35 27 -92 43 -125 26 -55 28 -63 15 -87 -7
-15 -10 -29 -7 -33 4 -3 1 -6 -6 -6 -7 0 -11 -6 -8 -14 3 -8 -1 -20 -9 -26 -8
-7 -14 -16 -14 -21 0 -4 -5 -20 -11 -36 -6 -15 -10 -30 -9 -32 1 -2 -3 -7 -8
-10 -6 -3 -12 -15 -14 -26 -1 -11 -5 -22 -8 -25 -8 -8 -50 -114 -50 -127 0 -6
-3 -13 -7 -15 -9 -4 -55 -107 -56 -125 0 -7 -5 -13 -10 -13 -5 0 -7 -7 -3 -15
3 -8 1 -15 -5 -15 -6 0 -7 -4 -4 -10 3 -5 2 -10 -3 -10 -5 0 -13 -10 -17 -22
-4 -13 -9 -27 -10 -33 -2 -5 -29 -68 -60 -140 -31 -71 -58 -134 -59 -140 -2
-5 -9 -23 -16 -40 -7 -16 -13 -33 -12 -37 1 -5 -2 -8 -7 -8 -5 0 -12 -11 -15
-25 -4 -14 -17 -49 -30 -78 -24 -54 -38 -88 -40 -97 -1 -3 -8 -16 -16 -30 -7
-14 -13 -27 -13 -30 0 -5 -26 -66 -52 -125 -40 -89 -54 -125 -47 -125 4 0 2
-4 -3 -8 -6 -4 -19 -27 -29 -52 -10 -25 -22 -54 -27 -65 -4 -11 -20 -46 -34
-79 -14 -32 -27 -63 -28 -70 -1 -6 -4 -13 -8 -16 -8 -8 -44 -104 -41 -112 1
-5 -2 -8 -8 -8 -6 0 -9 -3 -8 -7 0 -5 -6 -25 -15 -45 -10 -21 -17 -42 -17 -48
0 -5 -5 -10 -10 -10 -6 0 -10 -6 -9 -12 2 -7 -9 -38 -23 -68 -15 -30 -28 -62
-30 -70 -2 -8 -6 -17 -10 -20 -4 -3 -9 -15 -11 -25 -1 -11 -6 -25 -9 -31 -14
-22 -116 -264 -111 -264 2 0 -6 -14 -18 -32 -13 -17 -16 -28 -8 -23 10 6 9 3
-3 -11 -9 -10 -22 -38 -29 -61 -7 -24 -16 -43 -21 -43 -5 0 -8 -6 -6 -12 1 -7
-3 -22 -8 -33 -19 -37 -17 -110 5 -154 20 -38 76 -90 88 -83 3 2 9 0 12 -5 5
-8 105 -52 196 -87 17 -6 33 -15 36 -19 3 -5 12 -10 20 -11 17 -4 37 -12 114
-46 33 -14 63 -27 67 -29 4 -1 29 -11 55 -22 27 -12 53 -22 58 -24 6 -1 33
-12 60 -25 138 -62 158 -70 170 -70 8 0 15 -4 17 -10 2 -5 12 -11 23 -13 11
-2 43 -14 70 -26 28 -13 66 -30 85 -38 19 -8 43 -19 52 -24 19 -10 75 -22 98
-21 61 2 144 45 157 80 4 9 13 23 20 30 7 8 11 18 8 23 -4 5 -1 9 4 9 6 0 11
6 11 14 0 7 14 43 30 79 17 37 31 76 33 87 2 11 6 22 9 25 12 12 -3 109 -19
127 -9 10 -12 18 -7 18 5 1 -6 14 -25 30 -19 16 -38 27 -43 24 -4 -3 -8 -1 -8
3 0 5 -19 17 -42 27 -24 10 -62 26 -85 37 -24 10 -45 19 -48 19 -3 0 -24 9
-48 20 -23 10 -49 20 -57 22 -8 2 -17 5 -20 8 -3 3 -41 21 -85 39 -44 19 -104
46 -134 59 -30 13 -60 25 -65 27 -6 1 -30 10 -54 20 -47 20 -50 32 -17 99 10
21 18 44 18 52 0 8 4 14 8 14 6 0 13 19 21 57 1 5 8 14 15 21 7 8 11 18 8 23
-4 5 -1 9 4 9 6 0 11 6 11 14 0 7 20 58 44 114 24 55 42 103 38 106 -3 3 -1 6
5 6 10 0 25 39 22 56 0 4 3 10 8 13 10 7 76 160 76 179 0 6 4 12 8 12 3 0 10
10 14 23 4 12 8 24 10 27 1 3 5 14 10 25 4 11 19 44 31 73 13 29 24 55 24 57
0 2 12 30 27 62 15 32 28 60 28 63 3 11 52 127 91 215 9 22 18 42 19 45 6 16
21 51 43 100 14 30 25 61 25 68 0 6 5 12 10 12 5 0 7 7 3 15 -3 8 -2 15 2 15
6 0 32 55 37 80 1 3 14 32 30 65 15 33 28 66 28 73 0 6 3 12 7 12 7 0 35 84
29 86 -2 0 4 8 14 18 9 10 17 26 17 37 0 10 5 19 10 19 6 0 10 6 9 13 -1 6 7
32 19 57 12 25 22 51 22 58 0 6 5 12 10 12 6 0 10 6 9 13 -1 6 5 28 14 47 56
127 94 219 91 222 -2 2 5 4 14 5 32 3 135 42 144 55 4 7 8 9 8 5 0 -10 45 21
107 72 23 19 40 38 37 43 -3 4 -1 8 5 8 12 0 74 90 74 108 0 6 3 12 7 12 4 0
15 24 25 53 21 60 30 273 13 295 -6 6 -8 12 -5 12 13 0 -49 128 -88 180 -42
56 -75 94 -75 84 0 -3 -11 7 -25 22 -14 15 -25 23 -25 18 0 -5 -4 -4 -8 1 -19
27 -134 78 -204 91 -36 6 -136 13 -140 9z m167 -272 c43 -18 135 -105 135
-128 0 -7 4 -15 9 -17 14 -4 30 -115 24 -163 -6 -60 -35 -116 -87 -168 -25
-26 -46 -45 -46 -42 0 3 -12 -2 -26 -12 -15 -9 -36 -19 -48 -21 -34 -6 -149
-6 -173 1 -30 8 -81 35 -88 47 -4 6 -12 7 -18 4 -7 -4 -9 -4 -5 0 3 4 -9 23
-28 42 -19 19 -33 34 -30 34 3 0 -4 19 -14 43 -36 81 -27 201 20 267 11 15 17
30 15 34 -3 3 -3 4 0 2 3 -2 20 10 38 27 36 34 95 63 147 72 19 3 36 7 38 9 6
6 98 -14 137 -31z"/>
<path d="M2585 6105 c-34 -18 -57 -44 -49 -56 3 -5 0 -9 -5 -9 -6 0 -11 -6
-11 -12 -1 -7 -9 -31 -20 -53 -11 -22 -19 -43 -20 -47 0 -4 -14 -37 -31 -75
-17 -37 -37 -83 -45 -100 -30 -67 -42 -110 -34 -124 5 -7 7 -16 4 -20 -4 -8
51 -58 67 -60 18 -3 24 -5 44 -16 11 -6 23 -11 27 -12 5 -1 35 -14 69 -31 34
-16 64 -29 68 -28 3 1 29 -10 56 -23 28 -13 52 -24 55 -24 3 -1 23 -10 45 -20
22 -10 46 -18 53 -18 6 0 12 -4 12 -9 0 -5 5 -6 10 -3 6 3 10 2 10 -2 0 -5 17
-15 38 -22 20 -8 60 -24 87 -36 28 -13 79 -35 115 -50 89 -37 152 -65 172 -76
10 -5 25 -9 33 -9 8 0 15 -4 15 -10 0 -5 6 -10 14 -10 7 0 47 -15 89 -34 41
-19 78 -32 81 -29 3 4 6 1 6 -6 0 -7 4 -10 9 -6 5 3 15 0 23 -7 17 -17 108
-48 129 -45 38 6 66 38 98 113 19 44 44 102 56 129 99 225 99 225 82 261 -11
22 -33 42 -65 58 -27 14 -52 22 -56 19 -3 -4 -6 -1 -6 5 0 7 -5 12 -10 12 -6
0 -27 7 -48 17 -20 9 -39 17 -42 18 -3 1 -18 8 -35 15 -16 7 -32 14 -35 15 -3
1 -27 11 -53 23 -27 12 -50 22 -53 22 -6 0 -136 59 -164 74 -14 8 -27 14 -30
14 -7 1 -45 16 -102 40 -25 11 -49 18 -52 15 -3 -4 -6 -2 -6 3 0 9 -70 40 -79
35 -2 -2 -7 1 -10 6 -3 4 -42 24 -86 42 -44 19 -102 44 -130 57 -78 34 -209
88 -220 90 -5 1 -17 5 -25 8 -8 3 -28 -1 -45 -9z"/>
<path d="M1214 4648 c-43 -9 -128 -73 -118 -89 3 -5 0 -9 -5 -9 -6 0 -11 -5
-11 -10 0 -6 -9 -29 -20 -53 -10 -23 -20 -49 -22 -57 -2 -8 -6 -17 -10 -20 -3
-3 -15 -32 -26 -64 -21 -63 -20 -121 3 -166 15 -28 93 -100 110 -100 6 0 70
-25 142 -55 73 -30 138 -56 145 -57 7 -2 15 -6 18 -9 3 -3 48 -23 100 -44 52
-21 118 -48 145 -60 28 -12 65 -27 83 -34 37 -15 37 -16 17 -54 -8 -15 -16
-36 -17 -45 -2 -9 -6 -19 -9 -22 -3 -3 -16 -32 -29 -65 -13 -33 -33 -82 -45
-110 -12 -27 -30 -70 -39 -95 -10 -25 -25 -57 -33 -72 -8 -16 -12 -28 -8 -28
3 0 -1 -10 -9 -22 -8 -13 -16 -27 -17 -33 -2 -13 -12 -39 -42 -105 -13 -30
-25 -58 -26 -62 -2 -10 -29 -78 -41 -103 -5 -11 -11 -27 -12 -35 -2 -8 -9 -21
-15 -28 -7 -7 -14 -20 -14 -28 -2 -22 -4 -26 -27 -76 -12 -26 -22 -49 -22 -51
0 -3 -10 -26 -22 -53 -12 -27 -23 -51 -23 -54 -2 -7 -14 -36 -35 -85 -9 -22
-28 -67 -41 -100 -13 -33 -27 -63 -32 -66 -4 -3 -7 -10 -5 -15 1 -5 -3 -19
-10 -31 -7 -13 -9 -23 -5 -23 4 0 3 -4 -2 -8 -12 -8 -71 -153 -67 -164 1 -5
-2 -8 -7 -8 -7 0 -23 -42 -23 -60 1 -3 -7 -13 -15 -23 -9 -9 -13 -20 -10 -24
4 -3 1 -13 -7 -22 -8 -9 -15 -20 -16 -26 -2 -5 -7 -21 -13 -35 -5 -14 -11 -29
-12 -35 -2 -5 -11 -30 -22 -55 -18 -39 -37 -84 -85 -200 -22 -53 -36 -86 -46
-110 -6 -14 -23 -54 -37 -89 -25 -65 -50 -101 -68 -101 -22 0 -121 -55 -152
-84 -18 -17 -35 -32 -39 -33 -3 -2 -6 -5 -6 -8 0 -3 -13 -17 -30 -32 -17 -14
-29 -27 -26 -30 2 -2 -7 -16 -20 -30 -13 -14 -23 -28 -22 -32 1 -3 -6 -20 -15
-38 -40 -76 -58 -295 -28 -350 5 -11 7 -23 4 -27 -3 -3 -1 -6 6 -6 7 0 10 -4
6 -9 -7 -12 44 -109 86 -164 30 -39 121 -119 123 -107 1 2 11 -4 23 -15 24
-20 130 -66 147 -63 6 1 23 -2 38 -6 33 -9 148 -14 148 -6 0 3 12 6 28 7 15 2
34 4 42 6 44 11 76 21 80 26 3 3 28 17 55 31 65 33 198 164 198 196 0 5 7 14
16 21 9 7 12 13 7 13 -5 0 -4 6 3 13 6 8 19 51 30 98 19 78 21 161 8 239 -8
43 -48 140 -58 140 -6 0 -8 4 -5 9 3 5 -5 20 -17 33 -13 14 -22 34 -20 44 2
11 5 25 5 32 1 6 5 12 10 12 4 0 8 9 8 19 0 11 5 23 11 26 6 4 8 13 5 21 -3 8
-2 14 2 14 4 0 13 15 20 33 8 17 18 41 23 52 6 12 11 27 13 35 2 8 13 37 26
64 12 27 23 54 24 60 1 6 10 25 19 42 9 17 13 34 10 38 -4 3 -1 6 6 6 8 0 11
7 7 15 -3 8 -2 15 2 15 8 0 43 88 41 104 0 5 3 12 8 15 9 7 41 77 45 101 2 8
5 17 8 20 3 3 23 48 44 100 42 102 58 141 80 193 8 17 16 39 18 47 2 8 5 17 8
20 3 3 23 48 44 100 21 52 42 104 46 115 31 69 59 136 60 143 1 4 10 25 20 47
9 22 40 96 68 165 28 69 62 151 76 183 14 31 23 57 21 57 -3 0 2 11 11 25 9
14 12 25 8 25 -5 0 -4 4 1 8 6 4 21 34 34 67 21 53 38 93 71 170 16 39 23 60
22 68 -1 4 3 7 8 7 5 0 9 3 8 8 -1 6 8 32 29 82 3 8 5 18 5 23 -1 4 3 7 8 7 5
0 9 3 8 8 -1 9 6 28 41 106 14 33 24 61 23 64 -2 3 1 8 8 12 6 4 12 17 13 28
1 12 4 22 8 22 4 0 10 12 15 28 10 35 9 32 23 66 23 56 17 138 -11 157 -6 3
-10 10 -10 15 -2 32 -37 59 -128 97 -164 69 -296 121 -302 119 -5 -1 -8 2 -8
8 0 6 -3 9 -7 9 -5 -1 -11 0 -15 1 -5 1 -11 3 -15 5 -5 1 -26 10 -48 21 -22
10 -44 19 -50 19 -5 1 -41 16 -80 34 -38 19 -74 34 -80 36 -13 3 -44 14 -80
30 -16 8 -55 23 -85 35 -30 12 -68 27 -85 35 -132 57 -159 67 -183 71 -15 3
-31 6 -37 8 -5 1 -28 -1 -51 -6z m-169 -3474 c30 -11 125 -78 125 -87 0 -5 8
-21 19 -35 61 -87 59 -224 -5 -319 -61 -90 -144 -132 -254 -129 -189 6 -314
169 -276 361 9 48 49 118 82 144 13 10 21 21 18 23 -3 3 7 8 21 12 14 4 25 11
25 16 0 5 7 7 15 4 8 -4 15 -1 15 7 0 7 3 10 6 6 3 -3 22 0 41 7 35 12 125 7
168 -10z"/>
<path d="M5552 4170 c-11 -12 -41 -71 -67 -133 -26 -62 -55 -128 -63 -147 -9
-19 -16 -37 -17 -40 0 -4 -121 -291 -145 -345 -17 -38 -48 -111 -95 -220 -61
-142 -68 -159 -70 -165 -1 -3 -9 -21 -17 -40 -69 -154 -86 -204 -77 -234 10
-34 50 -71 87 -81 13 -3 57 -21 99 -40 41 -19 76 -35 78 -35 3 0 28 -11 57
-24 73 -32 140 -55 160 -54 35 2 67 46 113 153 25 61 54 126 63 145 9 19 17
40 18 45 1 6 13 36 28 67 28 61 49 110 50 118 1 3 13 32 27 65 22 49 90 209
204 480 7 17 24 56 39 88 14 32 26 61 26 65 0 4 7 21 16 37 21 39 22 87 2 116
-10 16 -58 42 -144 78 -71 30 -165 69 -209 88 -92 38 -136 42 -163 13z"/>
<path d="M1024 3905 c-16 -6 -34 -18 -41 -26 -6 -8 -111 -255 -233 -549 -122
-294 -239 -577 -261 -629 -21 -52 -39 -107 -39 -124 0 -42 42 -76 141 -115 46
-19 93 -38 104 -43 111 -50 214 -86 239 -83 41 5 69 35 95 102 13 31 29 71 36
87 7 17 52 125 99 240 48 116 93 224 101 240 7 17 23 54 35 84 11 30 30 74 41
97 10 24 19 46 19 49 0 3 8 25 19 48 10 23 42 98 70 167 28 69 56 133 61 143
17 29 25 107 11 107 -7 0 -10 4 -6 10 7 12 -25 32 -100 64 -33 13 -115 48
-182 76 -159 67 -173 70 -209 55z"/>
<path d="M2423 2531 c-70 -28 -91 -53 -144 -173 -27 -62 -54 -122 -59 -133 -5
-11 -43 -103 -85 -205 -41 -102 -80 -193 -85 -203 -6 -10 -8 -23 -4 -29 4 -7
3 -8 -4 -4 -7 4 -12 1 -12 -6 0 -11 -19 -57 -89 -223 -5 -11 -21 -49 -35 -85
-15 -36 -32 -73 -37 -83 -6 -10 -12 -41 -14 -69 -6 -91 39 -161 133 -204 29
-13 55 -24 57 -24 3 0 24 -9 48 -19 95 -43 136 -51 191 -39 40 8 126 68 126
88 0 4 10 29 22 56 12 27 23 51 23 54 1 3 10 23 19 45 10 22 40 94 68 160 27
66 58 139 69 162 10 24 19 46 19 50 0 5 6 19 13 33 7 14 23 51 36 82 l23 57
46 -18 c26 -11 144 -60 262 -111 118 -50 220 -92 225 -94 6 -2 28 -11 50 -20
22 -10 78 -34 125 -53 47 -20 125 -53 174 -74 49 -22 95 -39 102 -39 8 0 14
-4 14 -10 0 -5 8 -10 18 -10 10 0 42 -11 70 -25 29 -14 54 -25 58 -25 3 0 29
-11 57 -24 29 -13 156 -67 282 -119 127 -53 374 -157 549 -230 l320 -134 17
-66 c26 -91 88 -201 143 -250 12 -10 33 -29 47 -42 32 -28 161 -91 204 -100
81 -16 193 -13 284 9 62 14 169 80 228 140 65 67 135 194 148 269 18 106 3
238 -37 325 -130 283 -439 398 -726 272 -43 -19 -44 -19 -83 1 -22 11 -44 17
-48 14 -5 -3 -11 -2 -13 3 -1 4 -25 17 -53 29 -27 11 -133 56 -235 98 -192 80
-207 87 -304 129 -32 14 -62 23 -67 20 -5 -3 -9 -1 -9 4 0 5 -15 15 -32 22
-18 7 -73 30 -123 51 -49 21 -189 79 -310 129 -242 101 -258 108 -327 139 -26
11 -50 21 -54 21 -3 0 -29 11 -57 24 -29 13 -90 40 -137 59 -133 54 -451 187
-496 208 -22 10 -65 28 -95 39 -30 12 -69 28 -86 36 -304 133 -340 143 -410
115z m3293 -1363 c101 -47 164 -142 169 -252 4 -85 -17 -144 -71 -205 -66 -73
-119 -96 -219 -94 -95 1 -125 5 -125 14 0 4 -8 10 -19 14 -31 9 -98 82 -123
132 -34 71 -33 188 4 259 27 51 100 124 124 124 7 0 14 4 16 9 2 6 19 13 38
16 19 3 36 8 38 9 11 11 128 -7 168 -26z"/>
<path d="M2823 1544 c-3 -8 -9 -12 -14 -9 -9 6 -38 -46 -70 -127 -11 -29 -27
-66 -34 -83 -82 -187 -97 -233 -85 -265 1 -3 2 -8 2 -11 -1 -4 8 -15 18 -24
11 -10 20 -14 20 -9 0 5 4 4 8 -2 4 -6 79 -41 167 -78 88 -37 169 -71 180 -76
72 -34 235 -98 235 -92 0 4 4 2 8 -4 4 -6 34 -21 67 -34 33 -14 70 -31 83 -38
12 -8 22 -11 22 -8 0 4 11 -1 25 -10 14 -9 25 -13 25 -10 0 4 10 0 23 -9 13
-8 27 -12 30 -8 4 3 7 1 7 -5 0 -7 7 -12 15 -12 8 0 23 -4 33 -10 34 -19 167
-73 180 -73 6 0 12 -4 12 -9 0 -4 8 -8 18 -8 10 0 22 -4 28 -9 5 -5 34 -17 64
-28 55 -20 90 -20 90 -2 0 6 4 8 9 5 12 -8 34 27 64 100 29 70 34 86 35 98 0
5 5 12 11 15 6 4 12 16 14 26 2 11 13 41 25 68 12 26 21 49 21 52 1 3 7 18 16
35 18 35 19 89 2 111 -16 21 -96 64 -137 74 -3 0 -14 6 -25 12 -11 6 -22 11
-25 10 -3 0 -23 8 -45 17 -22 10 -49 22 -60 27 -101 44 -131 56 -140 58 -5 2
-28 11 -50 21 -63 28 -119 52 -130 54 -5 1 -28 10 -50 20 -22 10 -49 22 -60
26 -11 5 -40 18 -65 28 -93 40 -246 103 -260 107 -3 1 -25 11 -50 22 -155 73
-245 97 -257 67z"/>
</g>
</svg>
